<svg width="100" height="90" viewBox="0 0 100 90" fill="none" xmlns="http://www.w3.org/2000/svg">
<path d="M67.2081 23.5312C69.3331 23.5312 71.3643 23.7344 73.3018 24.1406C75.2706 24.5156 77.0987 25.0312 78.7862 25.6875C80.4737 26.3125 82.0049 27.0313 83.3799 27.8438C84.7549 28.6562 85.9268 29.4688 86.8956 30.2812L99.0831 21.8906L85.0674 48.7969L83.9893 34.6875C83.0831 34.0625 82.0987 33.5156 81.0362 33.0469C80.0049 32.5469 78.9581 32.1406 77.8956 31.8281C76.8643 31.4844 75.8643 31.2188 74.8956 31.0312C73.9268 30.8125 73.0674 30.6406 72.3174 30.5156C71.5674 30.3906 70.9581 30.3125 70.4893 30.2812C70.0518 30.2188 69.8174 30.1875 69.7862 30.1875C67.6612 30.1875 65.8799 30.4219 64.4424 30.8906C63.0049 31.3594 61.8331 31.9688 60.9268 32.7188C60.0518 33.4688 59.4112 34.3281 59.0049 35.2969C58.6299 36.2344 58.4424 37.1875 58.4424 38.1562C58.4424 40.125 58.8487 41.7969 59.6612 43.1719C60.4737 44.5156 61.7081 45.7188 63.3643 46.7812C65.0206 47.8438 67.1299 48.8438 69.6924 49.7812C72.2549 50.6875 75.2706 51.6719 78.7393 52.7344C80.8331 53.3906 82.8018 54.2812 84.6456 55.4062C86.5206 56.5 88.1456 57.7969 89.5206 59.2969C90.8956 60.7656 91.9737 62.4219 92.7549 64.2656C93.5674 66.0781 93.9737 68.0312 93.9737 70.125C93.9737 72.5625 93.6299 74.7344 92.9424 76.6406C92.2549 78.5156 91.3331 80.1719 90.1768 81.6094C89.0518 83.0156 87.7393 84.2188 86.2393 85.2188C84.7393 86.1875 83.1768 86.9688 81.5518 87.5625C79.9581 88.1875 78.3331 88.625 76.6768 88.875C75.0518 89.1562 73.5206 89.2969 72.0831 89.2969C67.8643 89.2969 64.0362 88.5781 60.5987 87.1406C57.1612 85.7031 53.9581 83.7344 50.9893 81.2344L38.8018 89.5781L52.3956 65.4844C52.7706 67.7344 53.4268 69.9062 54.3643 72C55.3331 74.0625 56.5206 75.9062 57.9268 77.5312C59.3331 79.1562 60.9581 80.4531 62.8018 81.4219C64.6456 82.3906 66.6612 82.875 68.8487 82.875C70.5987 82.875 72.1924 82.6094 73.6299 82.0781C75.0987 81.5469 76.3487 80.8438 77.3799 79.9688C78.4112 79.0625 79.2081 78.0312 79.7706 76.875C80.3643 75.6875 80.6612 74.4531 80.6612 73.1719C80.6612 71.3906 80.1612 69.8594 79.1612 68.5781C78.1612 67.2656 76.8487 66.1094 75.2237 65.1094C73.5987 64.0781 71.7393 63.1406 69.6456 62.2969C67.5831 61.4219 65.4581 60.5312 63.2706 59.625C61.0831 58.7188 58.9424 57.7188 56.8487 56.625C54.7862 55.5312 52.9424 54.25 51.3174 52.7812C49.6924 51.2812 48.3799 49.5312 47.3799 47.5312C46.3799 45.5312 45.8799 43.1719 45.8799 40.4531C45.8799 38.3594 46.2862 36.3125 47.0987 34.3125C47.9424 32.2812 49.2237 30.4688 50.9424 28.875C52.6924 27.2812 54.9112 26 57.5987 25.0312C60.2862 24.0313 63.4893 23.5312 67.2081 23.5312Z" fill="#EE3742"/>
<path d="M23.6094 66.9375V80.4844L35.4219 86.3438H0.546875L12.1719 79.4062L15.4531 31.2188L1.4375 22.6875C3.0625 22.4375 4.71875 22.2344 6.40625 22.0781C8.125 21.9219 9.8125 21.8125 11.4688 21.75C13.1562 21.6562 14.7812 21.5938 16.3438 21.5625C17.9375 21.5312 19.4219 21.5156 20.7969 21.5156C23.9219 21.5156 27.0312 21.625 30.125 21.8438C33.2188 22.0625 36.1719 22.4844 38.9844 23.1094C41.8281 23.7031 44.4531 24.5312 46.8594 25.5938C49.2969 26.6563 51.4062 28.0312 53.1875 29.7188C54.9688 31.375 56.3594 33.3906 57.3594 35.7656C58.3906 38.1406 58.9062 40.9219 58.9062 44.1094C58.9062 47.0156 58.4375 49.5938 57.5 51.8438C56.5938 54.0938 55.3438 56.0781 53.75 57.7969C52.1875 59.4844 50.3438 60.9062 48.2188 62.0625C46.0938 63.2188 43.8438 64.1719 41.4688 64.9219C39.0938 65.6406 36.6562 66.1562 34.1562 66.4688C31.6562 66.7812 29.2188 66.9375 26.8438 66.9375H23.6094ZM23.6094 27.75V62.25C27.2656 62.25 30.3594 61.8906 32.8906 61.1719C35.4219 60.4531 37.5312 59.5469 39.2188 58.4531C40.9062 57.3281 42.2188 56.0938 43.1562 54.75C44.125 53.375 44.8438 52.0625 45.3125 50.8125C45.7812 49.5312 46.0625 48.3906 46.1562 47.3906C46.2812 46.3594 46.3438 45.6094 46.3438 45.1406C46.3438 44.5156 46.2812 43.6562 46.1562 42.5625C46.0625 41.4375 45.7969 40.2344 45.3594 38.9531C44.9219 37.6719 44.2656 36.375 43.3906 35.0625C42.5156 33.7188 41.2969 32.5156 39.7344 31.4531C38.1719 30.3594 36.2188 29.4688 33.875 28.7812C31.5625 28.0937 28.75 27.75 25.4375 27.75H23.6094Z" fill="#838383"/>
</svg>
