<svg width="526" height="111" viewBox="0 0 526 111" fill="none" xmlns="http://www.w3.org/2000/svg">
<path d="M23.6094 66.9375V80.4844L35.4219 86.3438H0.546875L12.1719 79.4062L15.4531 31.2188L1.4375 22.6875C3.0625 22.4375 4.71875 22.2344 6.40625 22.0781C8.125 21.9219 9.8125 21.8125 11.4688 21.75C13.1562 21.6562 14.7812 21.5938 16.3438 21.5625C17.9375 21.5312 19.4219 21.5156 20.7969 21.5156C23.9219 21.5156 27.0312 21.625 30.125 21.8438C33.2188 22.0625 36.1719 22.4844 38.9844 23.1094C41.8281 23.7031 44.4531 24.5312 46.8594 25.5938C49.2969 26.6563 51.4062 28.0312 53.1875 29.7188C54.9688 31.375 56.3594 33.3906 57.3594 35.7656C58.3906 38.1406 58.9062 40.9219 58.9062 44.1094C58.9062 47.0156 58.4375 49.5938 57.5 51.8438C56.5938 54.0938 55.3438 56.0781 53.75 57.7969C52.1875 59.4844 50.3438 60.9062 48.2188 62.0625C46.0938 63.2188 43.8438 64.1719 41.4688 64.9219C39.0938 65.6406 36.6562 66.1562 34.1562 66.4688C31.6562 66.7812 29.2188 66.9375 26.8438 66.9375H23.6094ZM23.6094 27.75V62.25C27.2656 62.25 30.3594 61.8906 32.8906 61.1719C35.4219 60.4531 37.5312 59.5469 39.2188 58.4531C40.9062 57.3281 42.2188 56.0938 43.1562 54.75C44.125 53.375 44.8438 52.0625 45.3125 50.8125C45.7812 49.5312 46.0625 48.3906 46.1562 47.3906C46.2812 46.3594 46.3438 45.6094 46.3438 45.1406C46.3438 44.5156 46.2812 43.6562 46.1562 42.5625C46.0625 41.4375 45.7969 40.2344 45.3594 38.9531C44.9219 37.6719 44.2656 36.375 43.3906 35.0625C42.5156 33.7188 41.2969 32.5156 39.7344 31.4531C38.1719 30.3594 36.2188 29.4688 33.875 28.7812C31.5625 28.0937 28.75 27.75 25.4375 27.75H23.6094ZM95.4688 55.0312C95.1875 53.875 94.7812 52.8906 94.25 52.0781C93.75 51.2656 93.1719 50.5938 92.5156 50.0625C91.8906 49.5 91.2188 49.0781 90.5 48.7969C89.7812 48.4844 89.0625 48.25 88.3438 48.0938C86.6562 47.75 84.8594 47.7656 82.9531 48.1406C82.2969 48.3594 81.5938 48.7031 80.8438 49.1719C80.1875 49.6094 79.4375 50.2031 78.5938 50.9531C77.75 51.6719 76.8438 52.6406 75.875 53.8594L76.7188 81.0469L85.1562 85.2656L60.3125 87.4688L66.7344 80.9531L69.3594 48.3281L59.375 43.7812L75.5 40.7344L75.6875 46.5938C76.7812 45.2812 77.9062 44.2031 79.0625 43.3594C80.2188 42.5156 81.2656 41.8281 82.2031 41.2969C83.2969 40.7031 84.3594 40.25 85.3906 39.9375C87.2656 39.5 89.1719 39.3281 91.1094 39.4219C91.9219 39.4531 92.7656 39.5469 93.6406 39.7031C94.5469 39.8594 95.4531 40.1094 96.3594 40.4531C97.2969 40.7656 98.2031 41.2031 99.0781 41.7656C99.9531 42.2969 100.797 42.9688 101.609 43.7812L95.4688 55.0312ZM143.375 41.3906L145.203 81.7031L153.641 85.6406L134.422 89.2031L135.312 75.4688C134.438 77.3125 133.438 79.0781 132.312 80.7656C131.188 82.4219 129.922 83.8906 128.516 85.1719C127.109 86.4219 125.562 87.4219 123.875 88.1719C122.219 88.9219 120.422 89.2969 118.484 89.2969C116.172 89.2969 114.141 88.8906 112.391 88.0781C110.641 87.2656 109.172 86.1562 107.984 84.75C106.797 83.3125 105.891 81.6406 105.266 79.7344C104.672 77.7969 104.375 75.7344 104.375 73.5469C104.375 71.5156 104.531 69.4062 104.844 67.2188C105.156 65.0312 105.578 62.875 106.109 60.75C106.672 58.5938 107.328 56.5156 108.078 54.5156C108.859 52.4844 109.703 50.6094 110.609 48.8906L100.719 46.5938L119.281 40.2656C118.094 43.4219 117.172 46.4531 116.516 49.3594C115.891 52.2344 115.422 54.7969 115.109 57.0469C114.766 59.6719 114.547 62.1094 114.453 64.3594C114.453 67.2656 114.656 69.7812 115.062 71.9062C115.469 74 116.031 75.75 116.75 77.1562C117.469 78.5312 118.328 79.5625 119.328 80.25C120.328 80.9062 121.422 81.2344 122.609 81.2344C124.422 81.2344 126.047 80.75 127.484 79.7812C128.922 78.8125 130.188 77.5156 131.281 75.8906C132.406 74.2344 133.359 72.3125 134.141 70.125C134.953 67.9375 135.609 65.625 136.109 63.1875C136.641 60.75 137.031 58.2656 137.281 55.7344C137.531 53.2031 137.672 50.7656 137.703 48.4219L127.531 41.3906H143.375ZM193.109 81.1406L203.469 84.9844L186.5 88.2656L186.688 79.125C185.938 80.4062 185.078 81.6406 184.109 82.8281C183.141 83.9844 182.047 85.0156 180.828 85.9219C179.641 86.8281 178.312 87.5469 176.844 88.0781C175.375 88.6406 173.781 88.9219 172.062 88.9219C169.625 88.8594 167.312 88.3125 165.125 87.2812C162.969 86.25 161.062 84.7812 159.406 82.875C157.781 80.9375 156.484 78.5781 155.516 75.7969C154.578 72.9844 154.109 69.7812 154.109 66.1875C154.109 61.8125 154.625 57.9844 155.656 54.7031C156.688 51.4219 158.094 48.6875 159.875 46.5C161.656 44.3125 163.734 42.6719 166.109 41.5781C168.516 40.4844 171.078 39.9375 173.797 39.9375C176.547 39.9375 179.094 40.5312 181.438 41.7188C183.812 42.875 185.75 44.4375 187.25 46.4062L187.438 35.3438L176 31.0312L199.156 26.9062L193.109 81.1406ZM173.516 82.9688C173.609 82.9688 173.922 82.9375 174.453 82.875C174.984 82.8125 175.641 82.6562 176.422 82.4062C177.203 82.125 178.062 81.7188 179 81.1875C179.969 80.6562 180.922 79.9219 181.859 78.9844C182.828 78.0156 183.75 76.8125 184.625 75.375C185.5 73.9375 186.25 72.1875 186.875 70.125L187.156 54.8438C186.688 53.7188 186.094 52.6406 185.375 51.6094C184.688 50.5781 183.906 49.6719 183.031 48.8906C182.188 48.0781 181.234 47.4375 180.172 46.9688C179.141 46.4688 178.047 46.2188 176.891 46.2188C174.734 46.2188 172.891 46.75 171.359 47.8125C169.859 48.875 168.609 50.3438 167.609 52.2188C166.641 54.0938 165.922 56.3125 165.453 58.875C165.016 61.4375 164.797 64.2188 164.797 67.2188C164.797 69.4375 164.984 71.5156 165.359 73.4531C165.734 75.3594 166.281 77.0156 167 78.4219C167.719 79.8281 168.625 80.9375 169.719 81.75C170.812 82.5625 172.078 82.9688 173.516 82.9688Z" fill="#302D2D"/>
<path d="M495.547 69.7969C495.953 71.5469 496.5 73.2656 497.188 74.9531C497.875 76.6094 498.719 78.0938 499.719 79.4062C500.719 80.7188 501.875 81.7812 503.188 82.5938C504.5 83.4062 505.984 83.8125 507.641 83.8125C509.828 83.8125 511.734 83.3594 513.359 82.4531C514.984 81.5469 516.312 80.4062 517.344 79.0312C518.375 77.625 519.094 76.0938 519.5 74.4375C519.906 72.75 519.984 71.1406 519.734 69.6094C520.609 69.9531 521.328 70.4062 521.891 70.9688C522.484 71.5312 522.938 72.1562 523.25 72.8438C523.594 73.5 523.828 74.1875 523.953 74.9062C524.078 75.5938 524.141 76.2656 524.141 76.9219C524.141 78.4219 523.703 79.875 522.828 81.2812C521.953 82.6562 520.719 83.8906 519.125 84.9844C517.562 86.0469 515.703 86.9062 513.547 87.5625C511.391 88.2188 509.031 88.5469 506.469 88.5469C503.031 88.5469 499.953 87.875 497.234 86.5312C494.547 85.1875 492.266 83.375 490.391 81.0938C488.516 78.7812 487.078 76.0781 486.078 72.9844C485.078 69.8906 484.578 66.5938 484.578 63.0938C484.578 59.5312 485.078 56.25 486.078 53.25C487.078 50.2188 488.547 47.6406 490.484 45.5156C492.453 43.3906 494.859 41.7812 497.703 40.6875C500.547 39.5938 503.828 39.1562 507.547 39.375C510.109 39.5625 512.469 40.2969 514.625 41.5781C516.781 42.8594 518.656 44.5156 520.25 46.5469C521.875 48.5469 523.172 50.8438 524.141 53.4375C525.141 56.0312 525.75 58.7344 525.969 61.5469L495.547 69.7969ZM494.656 62.25C494.656 62.6875 494.656 63.125 494.656 63.5625C494.656 63.9688 494.688 64.3906 494.75 64.8281L515.328 57.3281C514.641 55.0781 513.859 53.1562 512.984 51.5625C512.141 49.9375 511.25 48.6094 510.312 47.5781C509.375 46.5469 508.422 45.7969 507.453 45.3281C506.516 44.8281 505.609 44.5781 504.734 44.5781C503.422 44.5781 502.266 44.8281 501.266 45.3281C500.266 45.8281 499.391 46.5156 498.641 47.3906C497.922 48.2344 497.297 49.2344 496.766 50.3906C496.266 51.5469 495.859 52.7812 495.547 54.0938C495.234 55.4062 495 56.7656 494.844 58.1719C494.719 59.5469 494.656 60.9062 494.656 62.25Z" fill="#EE3742"/>
<path d="M235.453 69.7969C235.047 71.5469 234.5 73.2656 233.812 74.9531C233.125 76.6094 232.281 78.0938 231.281 79.4062C230.281 80.7188 229.125 81.7812 227.812 82.5938C226.5 83.4062 225.016 83.8125 223.359 83.8125C221.172 83.8125 219.266 83.3594 217.641 82.4531C216.016 81.5469 214.688 80.4062 213.656 79.0312C212.625 77.625 211.906 76.0938 211.5 74.4375C211.094 72.75 211.016 71.1406 211.266 69.6094C210.391 69.9531 209.672 70.4062 209.109 70.9688C208.516 71.5312 208.062 72.1562 207.75 72.8438C207.406 73.5 207.172 74.1875 207.047 74.9062C206.922 75.5938 206.859 76.2656 206.859 76.9219C206.859 78.4219 207.297 79.875 208.172 81.2812C209.047 82.6562 210.281 83.8906 211.875 84.9844C213.438 86.0469 215.297 86.9062 217.453 87.5625C219.609 88.2188 221.969 88.5469 224.531 88.5469C227.969 88.5469 231.047 87.875 233.766 86.5312C236.453 85.1875 238.734 83.375 240.609 81.0938C242.484 78.7812 243.922 76.0781 244.922 72.9844C245.922 69.8906 246.422 66.5938 246.422 63.0938C246.422 59.5312 245.922 56.25 244.922 53.25C243.922 50.2188 242.453 47.6406 240.516 45.5156C238.547 43.3906 236.141 41.7812 233.297 40.6875C230.453 39.5938 227.172 39.1562 223.453 39.375C220.891 39.5625 218.531 40.2969 216.375 41.5781C214.219 42.8594 212.344 44.5156 210.75 46.5469C209.125 48.5469 207.828 50.8438 206.859 53.4375C205.859 56.0312 205.25 58.7344 205.031 61.5469L235.453 69.7969ZM236.344 62.25C236.344 62.6875 236.344 63.125 236.344 63.5625C236.344 63.9688 236.312 64.3906 236.25 64.8281L215.672 57.3281C216.359 55.0781 217.141 53.1562 218.016 51.5625C218.859 49.9375 219.75 48.6094 220.688 47.5781C221.625 46.5469 222.578 45.7969 223.547 45.3281C224.484 44.8281 225.391 44.5781 226.266 44.5781C227.578 44.5781 228.734 44.8281 229.734 45.3281C230.734 45.8281 231.609 46.5156 232.359 47.3906C233.078 48.2344 233.703 49.2344 234.234 50.3906C234.734 51.5469 235.141 52.7812 235.453 54.0938C235.766 55.4062 236 56.7656 236.156 58.1719C236.281 59.5469 236.344 60.9062 236.344 62.25Z" fill="#302D2D"/>
<path d="M294.609 57.8906C294.609 59.6406 294.531 61.4844 294.375 63.4219C294.219 65.3594 293.984 67.2969 293.672 69.2344C293.359 71.1719 292.969 73.0625 292.5 74.9062C292.062 76.75 291.547 78.4375 290.953 79.9688L300.188 82.9688L275.766 87.75L284.062 81.5156C284.719 79.1094 285.156 76.7969 285.375 74.5781C285.625 72.3594 285.75 70.2656 285.75 68.2969C285.75 67.1094 285.703 65.7656 285.609 64.2656C285.547 62.7344 285.375 61.1875 285.094 59.625C284.844 58.0625 284.469 56.5312 283.969 55.0312C283.5 53.5312 282.875 52.2031 282.094 51.0469C281.312 49.8594 280.344 48.9219 279.188 48.2344C278.062 47.5156 276.703 47.1562 275.109 47.1562C273.266 47.1562 271.391 47.7656 269.484 48.9844C267.578 50.2031 265.812 52 264.188 54.375V80.2969L271.922 85.8281L248.719 87.4688L254.859 80.6719L258.141 46.5938L248.156 41.6719L264.188 40.0781V47.1562C265.094 45.9062 266.094 44.7344 267.188 43.6406C268.281 42.5469 269.438 41.6094 270.656 40.8281C271.875 40.0156 273.141 39.3906 274.453 38.9531C275.797 38.4844 277.172 38.25 278.578 38.25C281.297 38.25 283.656 38.75 285.656 39.75C287.656 40.75 289.312 42.1406 290.625 43.9219C291.969 45.6719 292.969 47.75 293.625 50.1562C294.281 52.5312 294.609 55.1094 294.609 57.8906Z" fill="#302D2D"/>
<path d="M325.547 23.5312C327.672 23.5312 329.703 23.7344 331.641 24.1406C333.609 24.5156 335.438 25.0312 337.125 25.6875C338.812 26.3125 340.344 27.0313 341.719 27.8438C343.094 28.6562 344.266 29.4688 345.234 30.2812L357.422 21.8906L343.406 48.7969L342.328 34.6875C341.422 34.0625 340.438 33.5156 339.375 33.0469C338.344 32.5469 337.297 32.1406 336.234 31.8281C335.203 31.4844 334.203 31.2188 333.234 31.0312C332.266 30.8125 331.406 30.6406 330.656 30.5156C329.906 30.3906 329.297 30.3125 328.828 30.2812C328.391 30.2188 328.156 30.1875 328.125 30.1875C326 30.1875 324.219 30.4219 322.781 30.8906C321.344 31.3594 320.172 31.9688 319.266 32.7188C318.391 33.4688 317.75 34.3281 317.344 35.2969C316.969 36.2344 316.781 37.1875 316.781 38.1562C316.781 40.125 317.188 41.7969 318 43.1719C318.812 44.5156 320.047 45.7188 321.703 46.7812C323.359 47.8438 325.469 48.8438 328.031 49.7812C330.594 50.6875 333.609 51.6719 337.078 52.7344C339.172 53.3906 341.141 54.2812 342.984 55.4062C344.859 56.5 346.484 57.7969 347.859 59.2969C349.234 60.7656 350.312 62.4219 351.094 64.2656C351.906 66.0781 352.312 68.0312 352.312 70.125C352.312 72.5625 351.969 74.7344 351.281 76.6406C350.594 78.5156 349.672 80.1719 348.516 81.6094C347.391 83.0156 346.078 84.2188 344.578 85.2188C343.078 86.1875 341.516 86.9688 339.891 87.5625C338.297 88.1875 336.672 88.625 335.016 88.875C333.391 89.1562 331.859 89.2969 330.422 89.2969C326.203 89.2969 322.375 88.5781 318.938 87.1406C315.5 85.7031 312.297 83.7344 309.328 81.2344L297.141 89.5781L310.734 65.4844C311.109 67.7344 311.766 69.9062 312.703 72C313.672 74.0625 314.859 75.9062 316.266 77.5312C317.672 79.1562 319.297 80.4531 321.141 81.4219C322.984 82.3906 325 82.875 327.188 82.875C328.938 82.875 330.531 82.6094 331.969 82.0781C333.438 81.5469 334.688 80.8438 335.719 79.9688C336.75 79.0625 337.547 78.0312 338.109 76.875C338.703 75.6875 339 74.4531 339 73.1719C339 71.3906 338.5 69.8594 337.5 68.5781C336.5 67.2656 335.188 66.1094 333.562 65.1094C331.938 64.0781 330.078 63.1406 327.984 62.2969C325.922 61.4219 323.797 60.5312 321.609 59.625C319.422 58.7188 317.281 57.7188 315.188 56.625C313.125 55.5312 311.281 54.25 309.656 52.7812C308.031 51.2812 306.719 49.5312 305.719 47.5312C304.719 45.5312 304.219 43.1719 304.219 40.4531C304.219 38.3594 304.625 36.3125 305.438 34.3125C306.281 32.2812 307.562 30.4688 309.281 28.875C311.031 27.2812 313.25 26 315.938 25.0312C318.625 24.0313 321.828 23.5312 325.547 23.5312ZM360.891 66.4688C360.891 63.5312 361.188 60.6094 361.781 57.7031C362.406 54.7656 363.078 52.0781 363.797 49.6406L355.688 50.1562L378.562 25.1719C376.75 30.8906 375.281 36.0469 374.156 40.6406L392.391 42.1875L390 47.8125L372.328 49.0781C371.891 51.3594 371.547 53.3906 371.297 55.1719C371.078 56.9219 370.891 58.4062 370.734 59.625C370.578 61.0625 370.469 62.3125 370.406 63.375C370.406 66.5 370.594 69.3125 370.969 71.8125C371.344 74.3125 371.922 76.4531 372.703 78.2344C373.516 79.9844 374.531 81.3438 375.75 82.3125C377 83.25 378.484 83.7188 380.203 83.7188C381.797 83.7188 383.125 83.4062 384.188 82.7812C385.281 82.125 386.156 81.2969 386.812 80.2969C387.469 79.2656 387.938 78.125 388.219 76.875C388.5 75.5938 388.641 74.3281 388.641 73.0781C388.641 71.9219 388.547 70.7969 388.359 69.7031C389.703 70.3906 390.719 71.5 391.406 73.0312C392.125 74.5312 392.484 76.1719 392.484 77.9531C392.484 79.7969 392.172 81.4219 391.547 82.8281C390.953 84.2344 390.125 85.4219 389.062 86.3906C388 87.3281 386.75 88.0469 385.312 88.5469C383.875 89.0469 382.328 89.2969 380.672 89.2969C379.672 89.2969 378.484 89.1875 377.109 88.9688C375.766 88.75 374.359 88.3438 372.891 87.75C371.422 87.1875 369.969 86.375 368.531 85.3125C367.094 84.25 365.812 82.875 364.688 81.1875C363.562 79.5 362.641 77.4531 361.922 75.0469C361.234 72.6094 360.891 69.75 360.891 66.4688ZM395.484 63.4688C395.484 59.9688 396.031 56.7344 397.125 53.7656C398.25 50.7656 399.797 48.1719 401.766 45.9844C403.766 43.7969 406.125 42.0938 408.844 40.875C411.594 39.625 414.594 39 417.844 39C421 39 423.891 39.5938 426.516 40.7812C429.141 41.9375 431.422 43.5781 433.359 45.7031C435.297 47.8281 436.844 50.375 438 53.3438C439.156 56.3125 439.844 59.5938 440.062 63.1875C440.281 67.0312 439.875 70.5156 438.844 73.6406C437.844 76.7344 436.359 79.375 434.391 81.5625C432.422 83.7188 430.062 85.3906 427.312 86.5781C424.594 87.7656 421.641 88.3594 418.453 88.3594C415.391 88.3594 412.469 87.8125 409.688 86.7188C406.938 85.5938 404.5 83.9688 402.375 81.8438C400.281 79.7188 398.609 77.125 397.359 74.0625C396.109 70.9688 395.484 67.4375 395.484 63.4688ZM407.016 64.2656C407.016 67.0156 407.406 69.5 408.188 71.7188C408.969 73.9375 410.016 75.8281 411.328 77.3906C412.641 78.9219 414.156 80.1094 415.875 80.9531C417.594 81.7969 419.406 82.2188 421.312 82.2188C423.219 82.2188 425 81.8125 426.656 81C428.312 80.1562 429.75 78.9844 430.969 77.4844C432.188 75.9531 433.141 74.125 433.828 72C434.516 69.875 434.859 67.5156 434.859 64.9219C434.859 62.3594 434.516 59.9531 433.828 57.7031C433.141 55.4219 432.172 53.4375 430.922 51.75C429.703 50.0625 428.25 48.7344 426.562 47.7656C424.875 46.7969 423.031 46.3125 421.031 46.3125C419.25 46.3125 417.516 46.7188 415.828 47.5312C414.172 48.3438 412.688 49.5312 411.375 51.0938C410.062 52.625 409 54.5 408.188 56.7188C407.406 58.9375 407.016 61.4531 407.016 64.2656ZM477.75 55.0312C477.469 53.875 477.062 52.8906 476.531 52.0781C476.031 51.2656 475.453 50.5938 474.797 50.0625C474.172 49.5 473.5 49.0781 472.781 48.7969C472.062 48.4844 471.344 48.25 470.625 48.0938C468.938 47.75 467.141 47.7656 465.234 48.1406C464.578 48.3594 463.875 48.7031 463.125 49.1719C462.469 49.6094 461.719 50.2031 460.875 50.9531C460.031 51.6719 459.125 52.6406 458.156 53.8594L459 81.0469L467.438 85.2656L442.594 87.4688L449.016 80.9531L451.641 48.3281L441.656 43.7812L457.781 40.7344L457.969 46.5938C459.062 45.2812 460.188 44.2031 461.344 43.3594C462.5 42.5156 463.547 41.8281 464.484 41.2969C465.578 40.7031 466.641 40.25 467.672 39.9375C469.547 39.5 471.453 39.3281 473.391 39.4219C474.203 39.4531 475.047 39.5469 475.922 39.7031C476.828 39.8594 477.734 40.1094 478.641 40.4531C479.578 40.7656 480.484 41.2031 481.359 41.7656C482.234 42.2969 483.078 42.9688 483.891 43.7812L477.75 55.0312Z" fill="#EE3742"/>
</svg>
